<?xml version="1.0" encoding="us-ascii" standalone="no"?><svg xmlns="http://www.w3.org/2000/svg" xmlns:xlink="http://www.w3.org/1999/xlink" contentStyleType="text/css" height="463px" preserveAspectRatio="none" style="width:772px;height:463px;background:#FFFFFF;" version="1.1" viewBox="0 0 772 463" width="772px" zoomAndPan="magnify"><defs/><g><!--class Program--><g id="elem_Program"><rect codeLine="3" fill="#F1F1F1" height="80.5938" id="Program" rx="2.5" ry="2.5" style="stroke:#181818;stroke-width:0.5;" width="122" x="7" y="72"/><ellipse cx="35.05" cy="88" fill="#ADD1B2" rx="11" ry="11" style="stroke:#181818;stroke-width:1.0;"/><path d="M37.3938,83.6719 C36.4563,83.2344 35.8625,83.0938 34.9875,83.0938 C32.3625,83.0938 30.3625,85.1719 30.3625,87.8906 L30.3625,89.0156 C30.3625,91.5938 32.4719,93.4844 35.3625,93.4844 C36.5813,93.4844 37.7375,93.1875 38.4875,92.6406 C39.0656,92.2344 39.3938,91.7813 39.3938,91.3906 C39.3938,90.9375 39.0031,90.5469 38.5344,90.5469 C38.3156,90.5469 38.1125,90.625 37.925,90.8125 C37.4719,91.2969 37.4719,91.2969 37.2844,91.3906 C36.8625,91.6563 36.175,91.7813 35.4094,91.7813 C33.3625,91.7813 32.0656,90.6875 32.0656,88.9844 L32.0656,87.8906 C32.0656,86.1094 33.3156,84.7969 35.05,84.7969 C35.6281,84.7969 36.2375,84.9531 36.7063,85.2031 C37.1906,85.4844 37.3625,85.7031 37.4563,86.1094 C37.5188,86.5156 37.55,86.6406 37.6906,86.7656 C37.8313,86.9063 38.0656,87.0156 38.2844,87.0156 C38.55,87.0156 38.8156,86.875 38.9875,86.6563 C39.0969,86.5 39.1281,86.3125 39.1281,85.8906 L39.1281,84.4688 C39.1281,84.0313 39.1125,83.9063 39.0188,83.75 C38.8625,83.4844 38.5813,83.3438 38.2844,83.3438 C37.9875,83.3438 37.7844,83.4375 37.5656,83.75 L37.3938,83.6719 Z " fill="#000000"/><text fill="#000000" font-family="sans-serif" font-size="14" lengthAdjust="spacing" textLength="61" x="51.95" y="92.8467">Program</text><line style="stroke:#181818;stroke-width:0.5;" x1="8" x2="128" y1="104" y2="104"/><a href="secondPart.svg" target="_top" title="secondPart.svg" xlink:actuate="onRequest" xlink:href="secondPart.svg" xlink:show="new" xlink:title="secondPart.svg" xlink:type="simple"><text fill="#0000FF" font-family="sans-serif" font-size="14" lengthAdjust="spacing" text-decoration="underline" textLength="110" x="13" y="120.9951">secondPart.svg</text></a><line style="stroke:#181818;stroke-width:0.5;" x1="8" x2="128" y1="128.2969" y2="128.2969"/><rect fill="#F24D5C" height="6" style="stroke:#C82930;stroke-width:1.0;" width="6" x="15" y="138.9453"/><text fill="#000000" font-family="sans-serif" font-size="14" lengthAdjust="spacing" textLength="43" x="27" y="145.292">Main()</text></g><!--class PlantUML--><g id="elem_PlantUML"><rect codeLine="10" fill="#F1F1F1" height="80.5938" id="PlantUML" rx="2.5" ry="2.5" style="stroke:#181818;stroke-width:0.5;" width="168" x="164" y="72"/><ellipse cx="210.75" cy="88" fill="#ADD1B2" rx="11" ry="11" style="stroke:#181818;stroke-width:1.0;"/><path d="M213.0938,83.6719 C212.1563,83.2344 211.5625,83.0938 210.6875,83.0938 C208.0625,83.0938 206.0625,85.1719 206.0625,87.8906 L206.0625,89.0156 C206.0625,91.5938 208.1719,93.4844 211.0625,93.4844 C212.2813,93.4844 213.4375,93.1875 214.1875,92.6406 C214.7656,92.2344 215.0938,91.7813 215.0938,91.3906 C215.0938,90.9375 214.7031,90.5469 214.2344,90.5469 C214.0156,90.5469 213.8125,90.625 213.625,90.8125 C213.1719,91.2969 213.1719,91.2969 212.9844,91.3906 C212.5625,91.6563 211.875,91.7813 211.1094,91.7813 C209.0625,91.7813 207.7656,90.6875 207.7656,88.9844 L207.7656,87.8906 C207.7656,86.1094 209.0156,84.7969 210.75,84.7969 C211.3281,84.7969 211.9375,84.9531 212.4063,85.2031 C212.8906,85.4844 213.0625,85.7031 213.1563,86.1094 C213.2188,86.5156 213.25,86.6406 213.3906,86.7656 C213.5313,86.9063 213.7656,87.0156 213.9844,87.0156 C214.25,87.0156 214.5156,86.875 214.6875,86.6563 C214.7969,86.5 214.8281,86.3125 214.8281,85.8906 L214.8281,84.4688 C214.8281,84.0313 214.8125,83.9063 214.7188,83.75 C214.5625,83.4844 214.2813,83.3438 213.9844,83.3438 C213.6875,83.3438 213.4844,83.4375 213.2656,83.75 L213.0938,83.6719 Z " fill="#000000"/><text fill="#000000" font-family="sans-serif" font-size="14" lengthAdjust="spacing" textLength="66" x="231.25" y="92.8467">PlantUML</text><line style="stroke:#181818;stroke-width:0.5;" x1="165" x2="331" y1="104" y2="104"/><a href="secondPart.svg" target="_top" title="secondPart.svg" xlink:actuate="onRequest" xlink:href="secondPart.svg" xlink:show="new" xlink:title="secondPart.svg" xlink:type="simple"><text fill="#0000FF" font-family="sans-serif" font-size="14" lengthAdjust="spacing" text-decoration="underline" textLength="110" x="170" y="120.9951">secondPart.svg</text></a><line style="stroke:#181818;stroke-width:0.5;" x1="165" x2="331" y1="128.2969" y2="128.2969"/><ellipse cx="175" cy="141.9453" fill="#84BE84" rx="3" ry="3" style="stroke:#038048;stroke-width:1.0;"/><text fill="#000000" font-family="sans-serif" font-size="14" lengthAdjust="spacing" textLength="142" x="184" y="145.292">GeneratePlantUml()</text></g><!--class Library--><g id="elem_Library"><rect codeLine="17" fill="#F1F1F1" height="210.9688" id="Library" rx="2.5" ry="2.5" style="stroke:#181818;stroke-width:0.5;" width="193" x="367.5" y="7"/><ellipse cx="434.75" cy="23" fill="#ADD1B2" rx="11" ry="11" style="stroke:#181818;stroke-width:1.0;"/><path d="M437.0938,18.6719 C436.1563,18.2344 435.5625,18.0938 434.6875,18.0938 C432.0625,18.0938 430.0625,20.1719 430.0625,22.8906 L430.0625,24.0156 C430.0625,26.5938 432.1719,28.4844 435.0625,28.4844 C436.2813,28.4844 437.4375,28.1875 438.1875,27.6406 C438.7656,27.2344 439.0938,26.7813 439.0938,26.3906 C439.0938,25.9375 438.7031,25.5469 438.2344,25.5469 C438.0156,25.5469 437.8125,25.625 437.625,25.8125 C437.1719,26.2969 437.1719,26.2969 436.9844,26.3906 C436.5625,26.6563 435.875,26.7813 435.1094,26.7813 C433.0625,26.7813 431.7656,25.6875 431.7656,23.9844 L431.7656,22.8906 C431.7656,21.1094 433.0156,19.7969 434.75,19.7969 C435.3281,19.7969 435.9375,19.9531 436.4063,20.2031 C436.8906,20.4844 437.0625,20.7031 437.1563,21.1094 C437.2188,21.5156 437.25,21.6406 437.3906,21.7656 C437.5313,21.9063 437.7656,22.0156 437.9844,22.0156 C438.25,22.0156 438.5156,21.875 438.6875,21.6563 C438.7969,21.5 438.8281,21.3125 438.8281,20.8906 L438.8281,19.4688 C438.8281,19.0313 438.8125,18.9063 438.7188,18.75 C438.5625,18.4844 438.2813,18.3438 437.9844,18.3438 C437.6875,18.3438 437.4844,18.4375 437.2656,18.75 L437.0938,18.6719 Z " fill="#000000"/><text fill="#000000" font-family="sans-serif" font-size="14" lengthAdjust="spacing" textLength="50" x="455.25" y="27.8467">Library</text><line style="stroke:#181818;stroke-width:0.5;" x1="368.5" x2="559.5" y1="39" y2="39"/><text fill="#000000" font-family="sans-serif" font-size="14" lengthAdjust="spacing" textLength="99" x="373.5" y="55.9951">Books : List`1</text><a href="secondPart.svg" target="_top" title="secondPart.svg" xlink:actuate="onRequest" xlink:href="secondPart.svg" xlink:show="new" xlink:title="secondPart.svg" xlink:type="simple"><text fill="#0000FF" font-family="sans-serif" font-size="14" lengthAdjust="spacing" text-decoration="underline" textLength="110" x="373.5" y="72.292">secondPart.svg</text></a><line style="stroke:#181818;stroke-width:0.5;" x1="368.5" x2="559.5" y1="79.5938" y2="79.5938"/><ellipse cx="378.5" cy="93.2422" fill="#84BE84" rx="3" ry="3" style="stroke:#038048;stroke-width:1.0;"/><text fill="#000000" font-family="sans-serif" font-size="14" lengthAdjust="spacing" textLength="106" x="387.5" y="96.5889">DisplayBooks()</text><rect fill="#F24D5C" height="6" style="stroke:#C82930;stroke-width:1.0;" width="6" x="375.5" y="106.5391"/><text fill="#000000" font-family="sans-serif" font-size="14" lengthAdjust="spacing" textLength="112" x="387.5" y="112.8857">_RegisterData()</text><rect fill="#F24D5C" height="6" style="stroke:#C82930;stroke-width:1.0;" width="6" x="375.5" y="122.8359"/><text fill="#000000" font-family="sans-serif" font-size="14" lengthAdjust="spacing" textLength="167" x="387.5" y="129.1826">_ConvertStringInDate()</text><rect fill="#F24D5C" height="6" style="stroke:#C82930;stroke-width:1.0;" width="6" x="375.5" y="139.1328"/><text fill="#000000" font-family="sans-serif" font-size="14" lengthAdjust="spacing" textLength="102" x="387.5" y="145.4795">_CollectData()</text><ellipse cx="378.5" cy="158.4297" fill="#84BE84" rx="3" ry="3" style="stroke:#038048;stroke-width:1.0;"/><text fill="#000000" font-family="sans-serif" font-size="14" lengthAdjust="spacing" textLength="108" x="387.5" y="161.7764">SearchAuthor()</text><ellipse cx="378.5" cy="174.7266" fill="#84BE84" rx="3" ry="3" style="stroke:#038048;stroke-width:1.0;"/><text fill="#000000" font-family="sans-serif" font-size="14" lengthAdjust="spacing" textLength="103" x="387.5" y="178.0732">SearchBooks()</text><ellipse cx="378.5" cy="191.0234" fill="#84BE84" rx="3" ry="3" style="stroke:#038048;stroke-width:1.0;"/><text fill="#000000" font-family="sans-serif" font-size="14" lengthAdjust="spacing" textLength="113" x="387.5" y="194.3701">RemoveBooks()</text><ellipse cx="378.5" cy="207.3203" fill="#84BE84" rx="3" ry="3" style="stroke:#038048;stroke-width:1.0;"/><text fill="#000000" font-family="sans-serif" font-size="14" lengthAdjust="spacing" textLength="75" x="387.5" y="210.667">AddBook()</text></g><!--class IInterface--><g id="elem_IInterface"><rect codeLine="32" fill="#F1F1F1" height="80.5938" id="IInterface" rx="2.5" ry="2.5" style="stroke:#181818;stroke-width:0.5;" width="122" x="7" y="326.5"/><ellipse cx="31" cy="342.5" fill="#ADD1B2" rx="11" ry="11" style="stroke:#181818;stroke-width:1.0;"/><path d="M33.3438,338.1719 C32.4063,337.7344 31.8125,337.5938 30.9375,337.5938 C28.3125,337.5938 26.3125,339.6719 26.3125,342.3906 L26.3125,343.5156 C26.3125,346.0938 28.4219,347.9844 31.3125,347.9844 C32.5313,347.9844 33.6875,347.6875 34.4375,347.1406 C35.0156,346.7344 35.3438,346.2813 35.3438,345.8906 C35.3438,345.4375 34.9531,345.0469 34.4844,345.0469 C34.2656,345.0469 34.0625,345.125 33.875,345.3125 C33.4219,345.7969 33.4219,345.7969 33.2344,345.8906 C32.8125,346.1563 32.125,346.2813 31.3594,346.2813 C29.3125,346.2813 28.0156,345.1875 28.0156,343.4844 L28.0156,342.3906 C28.0156,340.6094 29.2656,339.2969 31,339.2969 C31.5781,339.2969 32.1875,339.4531 32.6563,339.7031 C33.1406,339.9844 33.3125,340.2031 33.4063,340.6094 C33.4688,341.0156 33.5,341.1406 33.6406,341.2656 C33.7813,341.4063 34.0156,341.5156 34.2344,341.5156 C34.5,341.5156 34.7656,341.375 34.9375,341.1563 C35.0469,341 35.0781,340.8125 35.0781,340.3906 L35.0781,338.9688 C35.0781,338.5313 35.0625,338.4063 34.9688,338.25 C34.8125,337.9844 34.5313,337.8438 34.2344,337.8438 C33.9375,337.8438 33.7344,337.9375 33.5156,338.25 L33.3438,338.1719 Z " fill="#000000"/><text fill="#000000" font-family="sans-serif" font-size="14" lengthAdjust="spacing" textLength="70" x="47" y="347.3467">IInterface</text><line style="stroke:#181818;stroke-width:0.5;" x1="8" x2="128" y1="358.5" y2="358.5"/><a href="secondPart.svg" target="_top" title="secondPart.svg" xlink:actuate="onRequest" xlink:href="secondPart.svg" xlink:show="new" xlink:title="secondPart.svg" xlink:type="simple"><text fill="#0000FF" font-family="sans-serif" font-size="14" lengthAdjust="spacing" text-decoration="underline" textLength="110" x="13" y="375.4951">secondPart.svg</text></a><line style="stroke:#181818;stroke-width:0.5;" x1="8" x2="128" y1="382.7969" y2="382.7969"/><ellipse cx="18" cy="396.4453" fill="#84BE84" rx="3" ry="3" style="stroke:#038048;stroke-width:1.0;"/><text fill="#000000" font-family="sans-serif" font-size="14" lengthAdjust="spacing" textLength="82" x="27" y="399.792">IsAvaiable()</text></g><!--class Hypertext--><g id="elem_Hypertext"><rect codeLine="39" fill="#F1F1F1" height="80.5938" id="Hypertext" rx="2.5" ry="2.5" style="stroke:#181818;stroke-width:0.5;" width="176" x="164" y="326.5"/><ellipse cx="210.75" cy="342.5" fill="#ADD1B2" rx="11" ry="11" style="stroke:#181818;stroke-width:1.0;"/><path d="M213.0938,338.1719 C212.1563,337.7344 211.5625,337.5938 210.6875,337.5938 C208.0625,337.5938 206.0625,339.6719 206.0625,342.3906 L206.0625,343.5156 C206.0625,346.0938 208.1719,347.9844 211.0625,347.9844 C212.2813,347.9844 213.4375,347.6875 214.1875,347.1406 C214.7656,346.7344 215.0938,346.2813 215.0938,345.8906 C215.0938,345.4375 214.7031,345.0469 214.2344,345.0469 C214.0156,345.0469 213.8125,345.125 213.625,345.3125 C213.1719,345.7969 213.1719,345.7969 212.9844,345.8906 C212.5625,346.1563 211.875,346.2813 211.1094,346.2813 C209.0625,346.2813 207.7656,345.1875 207.7656,343.4844 L207.7656,342.3906 C207.7656,340.6094 209.0156,339.2969 210.75,339.2969 C211.3281,339.2969 211.9375,339.4531 212.4063,339.7031 C212.8906,339.9844 213.0625,340.2031 213.1563,340.6094 C213.2188,341.0156 213.25,341.1406 213.3906,341.2656 C213.5313,341.4063 213.7656,341.5156 213.9844,341.5156 C214.25,341.5156 214.5156,341.375 214.6875,341.1563 C214.7969,341 214.8281,340.8125 214.8281,340.3906 L214.8281,338.9688 C214.8281,338.5313 214.8125,338.4063 214.7188,338.25 C214.5625,337.9844 214.2813,337.8438 213.9844,337.8438 C213.6875,337.8438 213.4844,337.9375 213.2656,338.25 L213.0938,338.1719 Z " fill="#000000"/><text fill="#000000" font-family="sans-serif" font-size="14" lengthAdjust="spacing" textLength="74" x="231.25" y="347.3467">Hypertext</text><line style="stroke:#181818;stroke-width:0.5;" x1="165" x2="339" y1="358.5" y2="358.5"/><a href="secondPart.svg" target="_top" title="secondPart.svg" xlink:actuate="onRequest" xlink:href="secondPart.svg" xlink:show="new" xlink:title="secondPart.svg" xlink:type="simple"><text fill="#0000FF" font-family="sans-serif" font-size="14" lengthAdjust="spacing" text-decoration="underline" textLength="110" x="170" y="375.4951">secondPart.svg</text></a><line style="stroke:#181818;stroke-width:0.5;" x1="165" x2="339" y1="382.7969" y2="382.7969"/><ellipse cx="175" cy="396.4453" fill="#84BE84" rx="3" ry="3" style="stroke:#038048;stroke-width:1.0;"/><text fill="#000000" font-family="sans-serif" font-size="14" lengthAdjust="spacing" textLength="150" x="184" y="399.792">PlantUMLHypertext()</text></g><!--class DigitalBook--><g id="elem_DigitalBook"><rect codeLine="46" fill="#F1F1F1" height="178.375" id="DigitalBook" rx="2.5" ry="2.5" style="stroke:#181818;stroke-width:0.5;" width="169" x="596.5" y="278"/><ellipse cx="635.35" cy="294" fill="#ADD1B2" rx="11" ry="11" style="stroke:#181818;stroke-width:1.0;"/><path d="M637.6938,289.6719 C636.7563,289.2344 636.1625,289.0938 635.2875,289.0938 C632.6625,289.0938 630.6625,291.1719 630.6625,293.8906 L630.6625,295.0156 C630.6625,297.5938 632.7719,299.4844 635.6625,299.4844 C636.8813,299.4844 638.0375,299.1875 638.7875,298.6406 C639.3656,298.2344 639.6938,297.7813 639.6938,297.3906 C639.6938,296.9375 639.3031,296.5469 638.8344,296.5469 C638.6156,296.5469 638.4125,296.625 638.225,296.8125 C637.7719,297.2969 637.7719,297.2969 637.5844,297.3906 C637.1625,297.6563 636.475,297.7813 635.7094,297.7813 C633.6625,297.7813 632.3656,296.6875 632.3656,294.9844 L632.3656,293.8906 C632.3656,292.1094 633.6156,290.7969 635.35,290.7969 C635.9281,290.7969 636.5375,290.9531 637.0063,291.2031 C637.4906,291.4844 637.6625,291.7031 637.7563,292.1094 C637.8188,292.5156 637.85,292.6406 637.9906,292.7656 C638.1313,292.9063 638.3656,293.0156 638.5844,293.0156 C638.85,293.0156 639.1156,292.875 639.2875,292.6563 C639.3969,292.5 639.4281,292.3125 639.4281,291.8906 L639.4281,290.4688 C639.4281,290.0313 639.4125,289.9063 639.3188,289.75 C639.1625,289.4844 638.8813,289.3438 638.5844,289.3438 C638.2875,289.3438 638.0844,289.4375 637.8656,289.75 L637.6938,289.6719 Z " fill="#000000"/><text fill="#000000" font-family="sans-serif" font-size="14" lengthAdjust="spacing" textLength="84" x="654.65" y="298.8467">DigitalBook</text><line style="stroke:#181818;stroke-width:0.5;" x1="597.5" x2="764.5" y1="310" y2="310"/><text fill="#000000" font-family="sans-serif" font-size="14" lengthAdjust="spacing" textLength="157" x="602.5" y="326.9951">DownloadLink : String</text><text fill="#000000" font-family="sans-serif" font-size="14" lengthAdjust="spacing" textLength="90" x="602.5" y="343.292">Title : String</text><text fill="#000000" font-family="sans-serif" font-size="14" lengthAdjust="spacing" textLength="111" x="602.5" y="359.5889">Author : Author</text><text fill="#000000" font-family="sans-serif" font-size="14" lengthAdjust="spacing" textLength="90" x="602.5" y="375.8857">ISBN : String</text><a href="secondPart.svg" target="_top" title="secondPart.svg" xlink:actuate="onRequest" xlink:href="secondPart.svg" xlink:show="new" xlink:title="secondPart.svg" xlink:type="simple"><text fill="#0000FF" font-family="sans-serif" font-size="14" lengthAdjust="spacing" text-decoration="underline" textLength="110" x="602.5" y="392.1826">secondPart.svg</text></a><line style="stroke:#181818;stroke-width:0.5;" x1="597.5" x2="764.5" y1="399.4844" y2="399.4844"/><rect fill="#F24D5C" height="6" style="stroke:#C82930;stroke-width:1.0;" width="6" x="604.5" y="410.1328"/><text fill="#000000" font-family="sans-serif" font-size="14" lengthAdjust="spacing" textLength="121" x="616.5" y="416.4795">_LinkGenerator()</text><ellipse cx="607.5" cy="429.4297" fill="#84BE84" rx="3" ry="3" style="stroke:#038048;stroke-width:1.0;"/><text fill="#000000" font-family="sans-serif" font-size="14" lengthAdjust="spacing" textLength="82" x="616.5" y="432.7764">IsAvaiable()</text><ellipse cx="607.5" cy="445.7266" fill="#84BE84" rx="3" ry="3" style="stroke:#038048;stroke-width:1.0;"/><text fill="#000000" font-family="sans-serif" font-size="14" lengthAdjust="spacing" textLength="134" x="616.5" y="449.0732">AvailabilityResult()</text></g><!--class Book--><g id="elem_Book"><rect codeLine="60" fill="#F1F1F1" height="145.7813" id="Book" rx="2.5" ry="2.5" style="stroke:#181818;stroke-width:0.5;" width="160" x="601" y="39.5"/><ellipse cx="658.25" cy="55.5" fill="#ADD1B2" rx="11" ry="11" style="stroke:#181818;stroke-width:1.0;"/><path d="M660.5938,51.1719 C659.6563,50.7344 659.0625,50.5938 658.1875,50.5938 C655.5625,50.5938 653.5625,52.6719 653.5625,55.3906 L653.5625,56.5156 C653.5625,59.0938 655.6719,60.9844 658.5625,60.9844 C659.7813,60.9844 660.9375,60.6875 661.6875,60.1406 C662.2656,59.7344 662.5938,59.2813 662.5938,58.8906 C662.5938,58.4375 662.2031,58.0469 661.7344,58.0469 C661.5156,58.0469 661.3125,58.125 661.125,58.3125 C660.6719,58.7969 660.6719,58.7969 660.4844,58.8906 C660.0625,59.1563 659.375,59.2813 658.6094,59.2813 C656.5625,59.2813 655.2656,58.1875 655.2656,56.4844 L655.2656,55.3906 C655.2656,53.6094 656.5156,52.2969 658.25,52.2969 C658.8281,52.2969 659.4375,52.4531 659.9063,52.7031 C660.3906,52.9844 660.5625,53.2031 660.6563,53.6094 C660.7188,54.0156 660.75,54.1406 660.8906,54.2656 C661.0313,54.4063 661.2656,54.5156 661.4844,54.5156 C661.75,54.5156 662.0156,54.375 662.1875,54.1563 C662.2969,54 662.3281,53.8125 662.3281,53.3906 L662.3281,51.9688 C662.3281,51.5313 662.3125,51.4063 662.2188,51.25 C662.0625,50.9844 661.7813,50.8438 661.4844,50.8438 C661.1875,50.8438 660.9844,50.9375 660.7656,51.25 L660.5938,51.1719 Z " fill="#000000"/><text fill="#000000" font-family="sans-serif" font-size="14" lengthAdjust="spacing" textLength="37" x="678.75" y="60.3467">Book</text><line style="stroke:#181818;stroke-width:0.5;" x1="602" x2="760" y1="71.5" y2="71.5"/><text fill="#000000" font-family="sans-serif" font-size="14" lengthAdjust="spacing" textLength="90" x="607" y="88.4951">Title : String</text><text fill="#000000" font-family="sans-serif" font-size="14" lengthAdjust="spacing" textLength="111" x="607" y="104.792">Author : Author</text><text fill="#000000" font-family="sans-serif" font-size="14" lengthAdjust="spacing" textLength="90" x="607" y="121.0889">ISBN : String</text><a href="secondPart.svg" target="_top" title="secondPart.svg" xlink:actuate="onRequest" xlink:href="secondPart.svg" xlink:show="new" xlink:title="secondPart.svg" xlink:type="simple"><text fill="#0000FF" font-family="sans-serif" font-size="14" lengthAdjust="spacing" text-decoration="underline" textLength="110" x="607" y="137.3857">secondPart.svg</text></a><line style="stroke:#181818;stroke-width:0.5;" x1="602" x2="760" y1="144.6875" y2="144.6875"/><ellipse cx="612" cy="158.3359" fill="#84BE84" rx="3" ry="3" style="stroke:#038048;stroke-width:1.0;"/><text fill="#000000" font-family="sans-serif" font-size="14" lengthAdjust="spacing" textLength="82" x="621" y="161.6826">IsAvaiable()</text><ellipse cx="612" cy="174.6328" fill="#84BE84" rx="3" ry="3" style="stroke:#038048;stroke-width:1.0;"/><text fill="#000000" font-family="sans-serif" font-size="14" lengthAdjust="spacing" textLength="134" x="621" y="177.9795">AvailabilityResult()</text></g><!--class Author--><g id="elem_Author"><rect codeLine="71" fill="#F1F1F1" height="129.4844" id="Author" rx="2.5" ry="2.5" style="stroke:#181818;stroke-width:0.5;" width="186" x="375" y="302.5"/><ellipse cx="439.25" cy="318.5" fill="#ADD1B2" rx="11" ry="11" style="stroke:#181818;stroke-width:1.0;"/><path d="M441.5938,314.1719 C440.6563,313.7344 440.0625,313.5938 439.1875,313.5938 C436.5625,313.5938 434.5625,315.6719 434.5625,318.3906 L434.5625,319.5156 C434.5625,322.0938 436.6719,323.9844 439.5625,323.9844 C440.7813,323.9844 441.9375,323.6875 442.6875,323.1406 C443.2656,322.7344 443.5938,322.2813 443.5938,321.8906 C443.5938,321.4375 443.2031,321.0469 442.7344,321.0469 C442.5156,321.0469 442.3125,321.125 442.125,321.3125 C441.6719,321.7969 441.6719,321.7969 441.4844,321.8906 C441.0625,322.1563 440.375,322.2813 439.6094,322.2813 C437.5625,322.2813 436.2656,321.1875 436.2656,319.4844 L436.2656,318.3906 C436.2656,316.6094 437.5156,315.2969 439.25,315.2969 C439.8281,315.2969 440.4375,315.4531 440.9063,315.7031 C441.3906,315.9844 441.5625,316.2031 441.6563,316.6094 C441.7188,317.0156 441.75,317.1406 441.8906,317.2656 C442.0313,317.4063 442.2656,317.5156 442.4844,317.5156 C442.75,317.5156 443.0156,317.375 443.1875,317.1563 C443.2969,317 443.3281,316.8125 443.3281,316.3906 L443.3281,314.9688 C443.3281,314.5313 443.3125,314.4063 443.2188,314.25 C443.0625,313.9844 442.7813,313.8438 442.4844,313.8438 C442.1875,313.8438 441.9844,313.9375 441.7656,314.25 L441.5938,314.1719 Z " fill="#000000"/><text fill="#000000" font-family="sans-serif" font-size="14" lengthAdjust="spacing" textLength="49" x="459.75" y="323.3467">Author</text><line style="stroke:#181818;stroke-width:0.5;" x1="376" x2="560" y1="334.5" y2="334.5"/><text fill="#000000" font-family="sans-serif" font-size="14" lengthAdjust="spacing" textLength="130" x="381" y="351.4951">FirstName : String</text><text fill="#000000" font-family="sans-serif" font-size="14" lengthAdjust="spacing" textLength="128" x="381" y="367.792">LastName : String</text><text fill="#000000" font-family="sans-serif" font-size="14" lengthAdjust="spacing" textLength="174" x="381" y="384.0889">DateOfBirth : Nullable`1</text><text fill="#000000" font-family="sans-serif" font-size="14" lengthAdjust="spacing" textLength="114" x="381" y="400.3857">Age : Nullable`1</text><a href="secondPart.svg" target="_top" title="secondPart.svg" xlink:actuate="onRequest" xlink:href="secondPart.svg" xlink:show="new" xlink:title="secondPart.svg" xlink:type="simple"><text fill="#0000FF" font-family="sans-serif" font-size="14" lengthAdjust="spacing" text-decoration="underline" textLength="110" x="381" y="416.6826">secondPart.svg</text></a><line style="stroke:#181818;stroke-width:0.5;" x1="376" x2="560" y1="423.9844" y2="423.9844"/></g><!--reverse link Book to DigitalBook--><g id="link_Book_DigitalBook"><path codeLine="58" d="M681,203.518 C681,232.234 681,247.572 681,277.723 " fill="none" id="Book-backto-DigitalBook" style="stroke:#181818;stroke-width:1.0;"/><polygon fill="none" points="681,185.518,675,203.518,687,203.518,681,185.518" style="stroke:#181818;stroke-width:1.0;"/></g><!--SRC=[hLDDJuD04BttL-nHOshYrNYX4fM4rgRLKzFe5APqqs6tsTsYHFtlBX-jkD0O4Za0UU_nPkRDmXXZ4O7MRAfaeY0TM81zbFVY6Z8s1YxEpajaiT0OIH5FGPbBdINBPGb_3GRbipOY4EPv73fE5upTeq051Yj5IdrSGxvIe7B7T2JbLhDhoshpUjMivNEz8yXBGLsddkTbXecLe_B1W4FTIf6XCdEZk4W2OHNOKX1XP9nlRS4vWeestjvifEfYt4uiCSDKPjX1U75Se7to2G9XHrf3XEtS0-rbm655sCVn8T_PAF3Tj0qFApvA-lZwFE46g1ZGSVRbco09SSZ5rYwrsiAHVUA6i0rNYLkyUZdYmNmqQQkB5HRszL5qLzLAwh0GYnAiE76Jpr3lwU-93yUJtNmEXx-6RcJH4SA_ZFc_epGQRbJ_QVcEAsqca7Qq7S8fflYt7jSZhip6afCzKT5huoVs4cmJfvhy1W00]--></g></svg>