<?xml version="1.0" encoding="us-ascii" standalone="no"?><svg xmlns="http://www.w3.org/2000/svg" xmlns:xlink="http://www.w3.org/1999/xlink" contentStyleType="text/css" height="117px" preserveAspectRatio="none" style="width:175px;height:117px;background:#FFFFFF;" version="1.1" viewBox="0 0 175 117" width="175px" zoomAndPan="magnify"><defs/><g><!--class Program--><g id="elem_Program"><rect codeLine="2" fill="#F1F1F1" height="96.8906" id="Program" rx="2.5" ry="2.5" style="stroke:#181818;stroke-width:0.5;" width="154" x="7" y="7"/><ellipse cx="49.45" cy="23" fill="#ADD1B2" rx="11" ry="11" style="stroke:#181818;stroke-width:1.0;"/><path d="M51.7938,18.6719 C50.8563,18.2344 50.2625,18.0938 49.3875,18.0938 C46.7625,18.0938 44.7625,20.1719 44.7625,22.8906 L44.7625,24.0156 C44.7625,26.5938 46.8719,28.4844 49.7625,28.4844 C50.9813,28.4844 52.1375,28.1875 52.8875,27.6406 C53.4656,27.2344 53.7938,26.7813 53.7938,26.3906 C53.7938,25.9375 53.4031,25.5469 52.9344,25.5469 C52.7156,25.5469 52.5125,25.625 52.325,25.8125 C51.8719,26.2969 51.8719,26.2969 51.6844,26.3906 C51.2625,26.6563 50.575,26.7813 49.8094,26.7813 C47.7625,26.7813 46.4656,25.6875 46.4656,23.9844 L46.4656,22.8906 C46.4656,21.1094 47.7156,19.7969 49.45,19.7969 C50.0281,19.7969 50.6375,19.9531 51.1063,20.2031 C51.5906,20.4844 51.7625,20.7031 51.8563,21.1094 C51.9188,21.5156 51.95,21.6406 52.0906,21.7656 C52.2313,21.9063 52.4656,22.0156 52.6844,22.0156 C52.95,22.0156 53.2156,21.875 53.3875,21.6563 C53.4969,21.5 53.5281,21.3125 53.5281,20.8906 L53.5281,19.4688 C53.5281,19.0313 53.5125,18.9063 53.4188,18.75 C53.2625,18.4844 52.9813,18.3438 52.6844,18.3438 C52.3875,18.3438 52.1844,18.4375 51.9656,18.75 L51.7938,18.6719 Z " fill="#000000"/><text fill="#000000" font-family="sans-serif" font-size="14" lengthAdjust="spacing" textLength="61" x="69.55" y="27.8467">Program</text><line style="stroke:#181818;stroke-width:0.5;" x1="8" x2="160" y1="39" y2="39"/><rect fill="none" height="6" style="stroke:#C82930;stroke-width:1.0;" width="6" x="15" y="49.6484"/><text fill="#000000" font-family="sans-serif" font-size="14" lengthAdjust="spacing" textLength="128" x="27" y="55.9951">_PlantUML : string</text><a href="mainDiagram.svg" target="_top" title="mainDiagram.svg" xlink:actuate="onRequest" xlink:href="mainDiagram.svg" xlink:show="new" xlink:title="mainDiagram.svg" xlink:type="simple"><text fill="#0000FF" font-family="sans-serif" font-size="14" lengthAdjust="spacing" text-decoration="underline" textLength="124" x="27" y="72.292">mainDiagram.svg</text></a><line style="stroke:#181818;stroke-width:0.5;" x1="8" x2="160" y1="79.5938" y2="79.5938"/><text fill="#000000" font-family="sans-serif" font-size="14" lengthAdjust="spacing" textLength="84" x="13" y="96.5889">Hypertext()</text></g><!--SRC=[uqpEIImkLWWeoaylIipbubG0WcekJavENONuW9p4l99GNny5AuNYagBCl7I8D0XuL1Qa5fMaLfHeQ78f887ewDp4p3oNp4IGQNh5PUcniH1DjG00]--></g></svg>